<svg width="18" height="18" viewBox="0 0 18 18" fill="none" xmlns="http://www.w3.org/2000/svg">
<path d="M2.73927 15.533H4.00427L11.7976 7.73974L10.5326 6.47474L2.73927 14.268V15.533ZM15.6603 6.42956L11.8202 2.63456L13.0852 1.36956C13.4315 1.02319 13.8571 0.850006 14.3619 0.850006C14.8661 0.850006 15.2914 1.02319 15.6378 1.36956L16.9028 2.63456C17.2491 2.98093 17.4298 3.39898 17.4449 3.88872C17.46 4.37785 17.2943 4.7956 16.9479 5.14197L15.6603 6.42956ZM14.3502 7.76233L4.77231 17.3402H0.932129V13.5L10.51 3.92215L14.3502 7.76233ZM11.1651 7.10724L10.5326 6.47474L11.7976 7.73974L11.1651 7.10724Z" fill="#8A8A8A"/>
</svg>
