<svg width="23" height="22" viewBox="0 0 23 22" fill="none" xmlns="http://www.w3.org/2000/svg">
<path d="M5.33655 4.88303L6.18365 18.4366C6.22388 19.2197 6.79356 19.792 7.539 19.792H15.3323C16.0807 19.792 16.6398 19.2197 16.6877 18.4366L17.5348 4.88303" stroke="#8A8A8A" stroke-width="1.51419" stroke-linecap="round" stroke-linejoin="round"/>
<path d="M3.9812 4.88303H18.8901H3.9812Z" fill="#8A8A8A"/>
<path d="M3.9812 4.88303H18.8901" stroke="#8A8A8A" stroke-width="1.51419" stroke-miterlimit="10" stroke-linecap="round"/>
<path d="M8.72495 4.88305V3.18885C8.72456 3.05525 8.75058 2.92289 8.80153 2.79939C8.85247 2.67588 8.92734 2.56367 9.02181 2.4692C9.11628 2.37473 9.22849 2.29986 9.352 2.24892C9.4755 2.19797 9.60786 2.17195 9.74147 2.17234H13.1299C13.2635 2.17195 13.3958 2.19797 13.5193 2.24892C13.6428 2.29986 13.755 2.37473 13.8495 2.4692C13.944 2.56367 14.0188 2.67588 14.0698 2.79939C14.1207 2.92289 14.1468 3.05525 14.1464 3.18885V4.88305M11.4357 7.59377V17.0813M8.38611 7.59377L8.72495 17.0813M14.4852 7.59377L14.1464 17.0813" stroke="#8A8A8A" stroke-width="1.51419" stroke-linecap="round" stroke-linejoin="round"/>
</svg>
