<svg width="90" height="64" viewBox="0 0 90 64" fill="none" xmlns="http://www.w3.org/2000/svg">
<g clip-path="url(#clip0_6_102)">
<path d="M38.5755 6.74662L37.3507 5.57627L38.1067 4.05799L36.5863 4.82252L35.4062 3.66304L35.6812 5.27499L34.173 6.04694L35.8753 6.31524L36.1461 7.97503L36.8977 6.48595L38.5755 6.74662Z" fill="white"/>
<path d="M42.9385 3.34336L43.9698 2.01353L42.336 2.46975L41.4022 1.1146L41.3579 2.74912L39.7248 3.21641L41.3417 3.8032L41.2812 5.4882L42.3163 4.16545L43.9129 4.73478L42.9385 3.34336Z" fill="white"/>
<path d="M33.5872 9.36254L32.1598 8.43442L32.6008 6.81102L31.2664 7.84381L29.8796 6.92713L30.4576 8.46365L29.1276 9.48907L30.8584 9.44534L31.4484 11.0216L31.8931 9.42019L33.5872 9.36254Z" fill="white"/>
<path d="M49.0365 2.48589L50.3016 1.35873L48.6076 1.51095L47.9649 0L47.5889 1.60186L45.9032 1.76109L47.3745 2.63437L46.9869 4.27222L48.2597 3.16664L49.7153 4.02571L49.0365 2.48589Z" fill="white"/>
<path d="M23.901 18.3965L25.4537 17.7191L23.7681 17.3855L23.5533 15.7186L22.7086 17.1642L21.0836 16.8201L22.2112 18.0304L21.3664 19.4727L22.9511 18.7917L24.0915 20.0417L23.901 18.3965Z" fill="white"/>
<path d="M21.426 23.9202L22.8248 22.967L21.0989 22.9489L20.5652 21.3584L20.0195 22.9384L18.3495 22.8987L19.6956 23.877L19.1499 25.4492L20.5652 24.4928L21.9436 25.5038L21.426 23.9202Z" fill="white"/>
<path d="M29.2654 13.2569L27.6804 12.6121L27.7938 10.9376L26.6817 12.2024L25.1499 11.557L26.0191 12.9559L24.9155 14.2096L26.5972 13.8441L27.4824 15.2789L27.6078 13.6333L29.2654 13.2569Z" fill="white"/>
<path d="M19.7227 29.6985L20.899 28.5026L19.213 28.807L18.3727 27.3466L18.1503 28.9881L16.5007 29.2674L18.0088 29.981L17.7823 31.6267L18.991 30.416L20.5354 31.155L19.7227 29.6985Z" fill="white"/>
<path d="M19.2422 35.7053L20.1682 34.3102L18.567 34.9264L17.4637 33.644L17.5527 35.3071L16 35.8866L17.6212 36.2993L17.7184 37.9526L18.668 36.5422L20.33 36.9855L19.2422 35.7053Z" fill="white"/>
<path d="M19.5119 46.0405L20.2391 47.5447L19.0146 48.6572L20.6721 48.4503L21.3997 49.9436L21.7392 48.2914L23.4453 48.0915L21.9537 47.2976L22.2726 45.6703L21.0316 46.8236L19.5119 46.0405Z" fill="white"/>
<path d="M19.2088 40.8695L17.8705 39.8147L18.287 41.434L16.8676 42.2932L18.5458 42.399L18.954 44.0031L19.6129 42.4418L21.3353 42.5578L20.0212 41.5105L20.6601 39.9707L19.2088 40.8695Z" fill="white"/>
<path d="M64.7005 4.05799L66.2208 4.82252L67.401 3.66304L67.126 5.27499L68.6341 6.04694L66.9318 6.31524L66.661 7.97503L65.9094 6.48595L64.2316 6.74662L65.4563 5.57627L64.7005 4.05799Z" fill="white"/>
<path d="M60.4711 2.46975L61.4049 1.1146L61.4494 2.74912L63.0824 3.21641L61.4655 3.8032L61.5257 5.4882L60.491 4.16545L58.894 4.73478L59.8686 3.34336L58.8374 2.01353L60.4711 2.46975Z" fill="white"/>
<path d="M70.2064 6.81102L71.5408 7.84381L72.9275 6.92713L72.3495 8.46365L73.6797 9.48907L71.9488 9.44534L71.3588 11.0216L70.9141 9.42019L69.2199 9.36254L70.6473 8.43442L70.2064 6.81102Z" fill="white"/>
<path d="M54.1996 1.51095L54.8422 0L55.2183 1.60186L56.904 1.76109L55.4326 2.63437L55.8204 4.27222L54.5474 3.16664L53.0919 4.02571L53.7707 2.48589L52.5058 1.35873L54.1996 1.51095Z" fill="white"/>
<path d="M79.0391 17.3855L79.2537 15.7186L80.0986 17.1642L81.7233 16.8201L80.596 18.0304L81.4406 19.4727L79.8561 18.7917L78.7156 20.0417L78.9059 18.3965L77.3532 17.7191L79.0391 17.3855Z" fill="white"/>
<path d="M81.7082 22.9489L82.2419 21.3584L82.7877 22.9384L84.4576 22.8987L83.1116 23.877L83.657 25.4492L82.2419 24.4928L80.8637 25.5037L81.381 23.9202L79.9823 22.967L81.7082 22.9489Z" fill="white"/>
<path d="M75.0132 10.9376L76.1254 12.2024L77.6571 11.557L76.7879 12.9559L77.8916 14.2096L76.2099 13.8441L75.3246 15.2789L75.1992 13.6333L73.5417 13.2569L75.1266 12.6121L75.0132 10.9376Z" fill="white"/>
<path d="M83.594 28.807L84.4342 27.3466L84.6567 28.9881L86.3065 29.2674L84.7985 29.981L85.0249 31.6267L83.8163 30.416L82.2715 31.155L83.0844 29.6985L81.908 28.5026L83.594 28.807Z" fill="white"/>
<path d="M84.2401 34.9264L85.3434 33.644L85.2543 35.3071L86.807 35.8866L85.1861 36.2993L85.0886 37.9526L84.1391 36.5422L82.4772 36.9855L83.5648 35.7053L82.639 34.3102L84.2401 34.9264Z" fill="white"/>
<path d="M83.7925 48.6572L82.1349 48.4503L81.4073 49.9436L81.0679 48.2914L79.3619 48.0915L80.8534 47.2976L80.5344 45.6703L81.7755 46.8236L83.2952 46.0405L82.5679 47.5447L83.7925 48.6572Z" fill="white"/>
<path d="M84.5203 41.434L85.9394 42.2932L84.2612 42.399L83.853 44.0031L83.194 42.4418L81.4718 42.5578L82.7858 41.5105L82.1471 39.9707L83.5985 40.8695L84.9365 39.8147L84.5203 41.434Z" fill="white"/>
<path d="M30.9912 45.4751L30.891 45.3205L33.816 40.4953L35.4876 37.8927L37.3836 35.8992L35.3129 40.0698L34.1903 40.9458L30.9912 45.4751ZM40.0094 41.3282L40.7082 40.3271L41.3568 40.1603L43.336 36.3897L43.5689 33.9372L44.6502 31.5181L44.5671 31.201L42.887 33.3198L42.471 33.47L39.4274 38.0915L39.8596 38.5419L36.7159 45.5494L38.8284 43.3638L40.0094 41.3282ZM44.1512 42.0457L43.8351 41.5117L41.1403 46.3835L40.5083 49.1197H41.0322L42.7537 47.0675L43.4523 43.8644L44.1512 42.0457ZM54.7302 20.8345L52.5677 18.7102V25.7063L50.7713 30.6114L53.2109 32.1686L49.0525 43.3692L49.8508 44.0587L47.6884 48.9416L50.3941 51.878H54.4748L53.7762 50.0986L59.9418 52.3676H66.9387L65.4639 49.8203L64.6986 47.8185L64.3992 46.3056L68.0364 50.8216H72.5163L71.1968 48.0964L69.1785 46.0499L64.1 34.916L61.838 34.2265L61.1837 34.9605H60.7857L59.6505 31.9685L58.5154 29.9553L56.9479 27.4303L54.7302 20.8345ZM51.2209 6.85205C35.7657 6.85205 23.2368 19.419 23.2368 34.9213C23.2368 39.1807 24.1826 43.2184 25.8751 46.8347L36.5603 34.5391L37.4834 34.239L41.5998 28.433L43.3963 26.8816L46.0907 22.6524L47.7125 21.1008L50.332 17.4221L51.9787 16.1708L55.0475 18.3731L56.5693 21.2009L58.5155 27.0068L60.7858 31.0357L65.5509 33.1629L69.8671 41.9966L70.9149 45.5252L71.9379 46.2757L72.836 47.3269L74.5034 50.4997C77.473 46.0426 79.2051 40.6846 79.2051 34.9213C79.2051 19.419 66.6763 6.85205 51.2209 6.85205Z" fill="white"/>
<path d="M71.61 53.9964H70.2517L69.9387 54.7198L69.4098 55.9433H68.7719L68.5826 56.3585H69.2364L68.4486 58.1465C67.8862 59.4037 66.9936 60.6428 66.4838 60.6428C66.3757 60.6428 66.3084 60.5916 66.3084 60.4768C66.3084 60.3691 66.3377 60.2521 66.4703 59.9384C66.6319 59.5533 66.8918 59.0069 67.0859 58.6025C67.3669 58.0192 67.8202 57.1033 67.8202 56.6473C67.8202 56.1889 67.5357 55.8399 66.9801 55.8399C66.3527 55.8399 65.7898 56.2271 65.2699 56.7793L65.6074 55.9433H64.3229L63.2775 58.3608C62.8626 59.22 62.0068 60.641 61.4775 60.641C61.3676 60.641 61.3212 60.5723 61.3212 60.4608C61.3212 60.4006 61.3504 60.275 61.3974 60.1654C61.4445 60.0556 62.0692 58.5786 62.0692 58.5786L63.2004 55.9364H61.8241L60.7248 58.5062C60.3797 59.3022 59.5203 60.6469 58.9692 60.6469C58.857 60.6469 58.7839 60.5891 58.7839 60.4474C58.7839 60.3059 58.886 60.054 58.9653 59.8655L59.5414 58.5781L59.5433 58.5787L60.7334 55.9365H59.3574L59.0888 56.5318L59.0878 56.5316C58.8902 56.9319 58.5413 57.409 58.0035 57.409C57.742 57.409 57.6232 57.3035 57.5588 57.2002C57.4787 56.3103 56.9294 55.8354 56.1081 55.8354C54.9727 55.8354 54.1635 56.5217 53.6322 57.3477C53.278 57.8999 53.0366 58.4993 52.8225 59.1892C52.3358 60.0036 51.8211 60.6411 51.4223 60.6411C51.3202 60.6411 51.257 60.579 51.257 60.4421C51.257 60.2893 51.3891 59.9892 51.4404 59.8769L52.3311 57.9404C52.5793 57.3408 52.7524 56.9448 52.7524 56.5567C52.7524 56.1386 52.4662 55.84 52.0012 55.84C51.3561 55.84 50.651 56.216 50.0979 56.8459C50.1165 56.7578 50.1255 56.6559 50.1255 56.5421C50.1255 56.0832 49.9043 55.84 49.4278 55.84C48.8369 55.84 48.2302 56.1953 47.6746 56.8489L48.0432 55.9435H46.788L45.7359 58.3609C45.2335 59.4999 44.4324 60.6411 43.9755 60.6411C43.8687 60.6411 43.8079 60.5853 43.8079 60.4465C43.8079 60.223 44.0427 59.6879 44.137 59.4676L45.5292 56.2424C45.6329 56.0015 44.9638 55.8523 44.1134 55.8523C43.24 55.8523 42.3482 56.2959 41.6874 56.8514C41.2264 57.2397 40.8844 57.4372 40.7079 57.4372C40.6222 57.4372 40.5838 57.3894 40.5838 57.3333C40.5838 57.1343 41.0475 56.5802 41.0475 56.1599C41.0475 55.9685 40.9458 55.84 40.6874 55.84C40.1872 55.84 39.6011 56.3293 39.1647 56.8347L39.5328 55.943H38.3148L37.265 58.3609C36.7625 59.4999 35.939 60.6903 35.4825 60.6903C35.376 60.6903 35.3147 60.6341 35.3147 60.4954C35.3147 60.2804 35.5398 59.7485 35.6671 59.4676L37.059 56.2424C37.1627 56.0015 36.4942 55.8523 35.644 55.8523C34.3891 55.8523 33.1659 56.716 32.5097 57.6002C31.7943 58.5624 31.3095 59.5799 31.2985 60.4097C31.2893 61.0746 31.6279 61.4946 32.3103 61.4946C33.0701 61.4946 33.677 60.879 34.0395 60.4192C34.031 60.4673 33.9968 60.6367 33.9968 60.6946C33.9968 61.1586 34.1783 61.4942 34.7293 61.4942C35.2165 61.4942 35.8677 61.0781 36.3913 60.4152L35.968 61.3973H37.2972L38.5992 58.3861C39.0241 57.4061 39.5176 56.8978 39.6501 56.8978C39.6928 56.8978 39.7117 56.917 39.7117 56.9546C39.7117 57.059 39.5123 57.3338 39.5123 57.5915C39.5123 57.8548 39.6529 58.035 40.0091 58.035C40.2936 58.035 40.6135 57.8935 40.895 57.7158C40.2263 58.644 39.7783 59.6136 39.7678 60.4098C39.7592 61.0747 40.0984 61.4946 40.7807 61.4946C41.5008 61.4946 42.1612 60.806 42.5241 60.3462C42.5111 60.4185 42.4978 60.5754 42.4978 60.6648C42.4978 61.1168 42.7483 61.4943 43.26 61.4943C43.8214 61.4943 44.285 61.1342 44.8494 60.4315L44.4325 61.3974H45.7936L47.0355 58.5193C47.5784 57.2667 48.3152 56.6068 48.679 56.6068C48.7867 56.6068 48.859 56.6655 48.859 56.7941C48.859 56.8713 48.8263 57.0134 48.7473 57.2018L46.9262 61.3974L48.32 61.3938L49.592 58.4656C50.1388 57.2116 50.7439 56.5912 51.1934 56.5912C51.3293 56.5912 51.3874 56.6629 51.3874 56.8145C51.3874 56.8984 51.3614 57.0386 51.2563 57.2739L50.0375 59.9267C49.9362 60.1534 49.837 60.4796 49.837 60.7315C49.837 61.1333 50.0556 61.4943 50.663 61.4943C51.4533 61.4943 52.0609 60.8855 52.7389 59.9672L52.742 60.1639C52.7924 60.8928 53.1955 61.5224 54.2469 61.5224C55.4926 61.5224 56.5017 60.6412 57.1144 59.2487C57.3895 58.6236 57.5222 58.0906 57.5589 57.6869C57.675 57.7463 57.8206 57.7835 58.0036 57.7835C58.1758 57.7835 58.3792 57.7487 58.5903 57.6378L58.3737 58.1178C58.1242 58.6499 57.8464 59.2416 57.6403 59.7347C57.4882 60.0988 57.397 60.4399 57.397 60.6676C57.397 61.1665 57.6637 61.5178 58.2187 61.5178C58.7752 61.5178 59.5389 60.985 60.0764 60.2381H60.0932C60.0622 60.3869 60.0318 60.598 60.0318 60.7099C60.0318 61.1207 60.155 61.5146 60.723 61.5146C61.381 61.5146 61.8883 61.0284 62.3881 60.4219L61.9665 61.3975H63.3428L64.4396 58.8605C65.0606 57.4288 65.6873 56.568 66.2677 56.568C66.3916 56.568 66.4554 56.6518 66.4554 56.7773C66.4554 57.0157 66.1213 57.6732 65.8054 58.3389C65.5201 58.9391 65.3079 59.398 65.1594 59.759C65.0283 60.0788 64.9207 60.4646 64.9207 60.7162C64.9207 61.1571 65.1611 61.4944 65.6898 61.4944C66.4814 61.4944 67.2927 60.715 67.7173 60.1142C67.6198 60.3919 67.5584 60.7283 67.5584 60.9937C67.5584 61.8017 68.0399 62.2079 68.7049 62.2079C69.1739 62.2079 69.58 62.0413 69.9386 61.7873C70.4586 61.419 70.8774 60.865 71.2326 60.3509L70.9985 60.1209C70.67 60.5941 70.3092 61.0479 69.9386 61.3274C69.7064 61.5031 69.4702 61.6106 69.2363 61.6106C68.9537 61.6106 68.7723 61.4622 68.7723 61.0853C68.7723 60.7142 68.9397 60.2147 69.2002 59.5512C69.214 59.519 69.5838 58.6718 69.9385 57.8554C70.2391 57.1645 70.5289 56.495 70.5847 56.3587H71.4773L71.658 55.9435H70.7696L71.61 53.9964ZM32.9487 60.6465C32.752 60.6465 32.6205 60.5795 32.6156 60.3192C32.6252 59.6327 33.1787 58.4249 33.8777 57.4582C34.3618 56.7884 34.9993 56.2939 35.6785 56.2939L34.8137 58.2585C34.1726 59.7436 33.4669 60.6465 32.9487 60.6465ZM41.4189 60.6465C41.2224 60.6465 41.0898 60.5795 41.0855 60.3192C41.095 59.6327 41.6485 58.4249 42.3473 57.4582C42.8312 56.7884 43.4688 56.2939 44.1478 56.2939L43.283 58.2585H43.285C42.6339 59.7651 41.9606 60.6465 41.4189 60.6465H41.4189ZM55.0422 60.4761C54.7354 60.9157 54.4723 61.0425 54.2445 61.0425C53.9313 61.0425 53.8384 60.7754 53.8768 60.3846C53.9453 59.6985 54.497 58.1146 55.2715 57.0182C55.624 56.5188 55.8672 56.3113 56.1302 56.3113C56.3897 56.3113 56.4816 56.5393 56.4722 56.8249C56.4478 57.5685 55.8005 59.3885 55.0422 60.4761Z" fill="white"/>
<path d="M29.4183 57.358C29.8967 57.302 30.6788 57.1456 30.9765 57.0377C32.8164 56.5248 34.9003 55.2939 34.9003 53.1081C34.9003 50.5907 32.2319 49.3833 29.052 49.3833C25.6582 49.3833 22.5456 50.8873 21.3909 53.2114C21.0857 53.8265 20.9154 54.4978 20.9154 55.2153C20.9154 55.8635 21.0733 56.4461 21.3909 56.9163C21.8806 57.6414 22.7535 58.097 24.043 58.097C25.6146 58.097 26.8674 57.234 26.8674 55.7333C26.8674 55.7333 26.8907 55.3116 26.401 55.3116C25.9991 55.3116 25.8959 55.5877 25.9053 55.7333C25.9626 56.9129 25.2669 57.8493 24.0176 57.8493C22.6224 57.8493 22.0363 56.6636 22.0363 55.392C22.0363 52.7933 23.9971 51.0715 26.0373 50.3337C27.0833 49.9522 27.9247 49.8148 29.0218 49.8148C31.3295 49.8148 33.217 50.7022 33.217 53.0696C33.217 55.0532 31.5523 56.7404 29.5505 56.8814L29.6295 56.6086C30.0399 55.1554 30.5347 53.5662 31.3513 52.3835C31.3994 52.3095 31.4846 52.1989 31.5778 52.0806L31.466 51.9415C31.3204 52.0256 31.06 52.2155 30.9559 52.2966C27.1256 55.279 27.0101 63.6497 21.9103 63.6497C21.7253 63.6497 21.5528 63.6351 21.3909 63.6093C20.3266 63.438 19.7699 62.7235 19.7734 61.7305C19.7742 61.5354 19.8409 61.2663 19.8409 61.1135C19.8409 60.8559 19.6661 60.5887 19.2835 60.5887C18.8284 60.5887 18.6416 60.9428 18.6331 61.4645C18.6089 62.9561 19.7044 63.8187 21.3909 63.9741C21.5751 63.9914 21.7664 64 21.9645 64C25.9428 63.9999 28.3881 61.001 29.4183 57.358Z" fill="white"/>
<path fill-rule="evenodd" clip-rule="evenodd" d="M79.0578 53.1865L77.3358 56.9077H73.6145L72.5219 59.2688H76.2433L74.5213 62.99H76.8823L78.6043 59.2688H82.3256L83.4182 56.9077H79.6968L81.4188 53.1865H79.0578Z" fill="white"/>
</g>
<defs>
<clipPath id="clip0_6_102">
<rect width="90" height="64" fill="white"/>
</clipPath>
</defs>
</svg>
